<?xml version="1.0" encoding="UTF-8" standalone="no"?>
<!-- Created with Inkscape (http://www.inkscape.org/) -->

<svg
   xmlns:dc="http://purl.org/dc/elements/1.1/"
   xmlns:cc="http://creativecommons.org/ns#"
   xmlns:rdf="http://www.w3.org/1999/02/22-rdf-syntax-ns#"
   xmlns:svg="http://www.w3.org/2000/svg"
   xmlns="http://www.w3.org/2000/svg"
   xmlns:sodipodi="http://sodipodi.sourceforge.net/DTD/sodipodi-0.dtd"
   xmlns:inkscape="http://www.inkscape.org/namespaces/inkscape"
   id="svg22864"
   version="1.1"
   inkscape:version="0.91 r13725"
   xml:space="preserve"
   width="393.79999"
   height="176.4375"
   viewBox="0 0 393.79999 176.4375"
   sodipodi:docname="boston_univ_white.svg"><metadata
     id="metadata22870"><rdf:RDF><cc:Work
         rdf:about=""><dc:format>image/svg+xml</dc:format><dc:type
           rdf:resource="http://purl.org/dc/dcmitype/StillImage" /><dc:title></dc:title></cc:Work></rdf:RDF></metadata><defs
     id="defs22868" /><sodipodi:namedview
     pagecolor="#ffffff"
     bordercolor="#666666"
     borderopacity="1"
     objecttolerance="10"
     gridtolerance="10"
     guidetolerance="10"
     inkscape:pageopacity="0"
     inkscape:pageshadow="2"
     inkscape:window-width="1918"
     inkscape:window-height="1042"
     id="namedview22866"
     showgrid="false"
     inkscape:zoom="0.9878111"
     inkscape:cx="-55.172492"
     inkscape:cy="88.21875"
     inkscape:window-x="1440"
     inkscape:window-y="37"
     inkscape:window-maximized="0"
     inkscape:current-layer="g22872" /><g
     id="g22872"
     inkscape:groupmode="layer"
     inkscape:label="ink_ext_XXXXXX"
     transform="matrix(1.25,0,0,-1.25,0,176.4375)"><g
       id="g22874"
       transform="scale(0.1,0.1)"><path
         d="m 535.09,1043.07 c -0.34,41.11 -23.664,77.82 -96.926,78.16 -12.172,0 -33.949,-0.98 -47.961,-0.41 -0.789,0 -1.707,-0.08 -2.453,-0.08 l -1.398,-145.056 64.468,0 c 57.438,0.421 83.93,21.64 84.27,67.386"
         style="fill:#ffffff;fill-opacity:1;fill-rule:nonzero;stroke:none"
         id="path22876"
         inkscape:connector-curvature="0" /><path
         d="m 2305.24,932.598 c -0.08,111.192 -70.04,188.562 -168.03,188.632 -104.2,-0.14 -145.73,-97.01 -145.87,-168.628 0.07,-111.797 75.53,-189.868 171.16,-189.946 96.5,0.153 142.66,85.024 142.74,169.942"
         style="fill:#ffffff;fill-opacity:1;fill-rule:nonzero;stroke:none"
         id="path22878"
         inkscape:connector-curvature="0" /><path
         d="M 754.453,952.602 C 754.535,840.805 830,762.734 925.621,762.656 c 96.439,0.153 142.689,85.024 142.859,169.942 -0.17,111.192 -70.167,188.562 -168.238,188.632 -104.203,-0.14 -145.707,-97.01 -145.789,-168.628"
         style="fill:#ffffff;fill-opacity:1;fill-rule:nonzero;stroke:none"
         id="path22880"
         inkscape:connector-curvature="0" /><path
         d="m 387.75,833.004 c 0.555,-45.047 15.813,-58.832 66.063,-59.508 78.39,0.352 99.617,47.574 99.957,93.969 -0.094,45.195 -34.196,91.336 -103.532,91.484 l -57.14,1.203 -5.348,0 0,-127.148"
         style="fill:#ffffff;fill-opacity:1;fill-rule:nonzero;stroke:none"
         id="path22882"
         inkscape:connector-curvature="0" /><path
         d="m 1738.55,404.859 c 5.1,-0.597 9.08,-0.679 13.24,-0.679 3.12,0 6.27,0 10.02,0.082 43.48,0.34 70.14,17.304 70.44,63.633 -0.46,36.082 -14.87,62.464 -75.17,62.957 -6.65,0 -11.22,0.066 -15.98,0.593 -0.46,-0.035 -0.86,-0.035 -1.32,-0.066 l -1.23,-126.52"
         style="fill:#ffffff;fill-opacity:1;fill-rule:nonzero;stroke:none"
         id="path22884"
         inkscape:connector-curvature="0" /><path
         d="m 2891.77,538.469 -1.21,-10.102 -1.23,-0.113 c -26.46,-2.18 -36.62,-11.816 -47.79,-30.223 l -65.85,-110.703 0.07,-59.797 c 0.58,-20.609 5.41,-26.32 29.25,-26.953 l 7.79,-1.387 0,-1.32 -1.33,-10.199 -101.27,1.238 -10.91,0 0,0.141 -1.37,0 0,1.32 1.37,10.207 8.83,0 c 24.11,0.633 28.6,7.231 29.16,26.121 l 0.28,55.153 -70.8,110.554 c -19.82,30.563 -26.97,34.801 -52.41,35.848 l -2.56,1.504 0,1.125 1.4,10.215 109.86,-1.395 0,-1.234 -1.38,-10.215 -1.23,0 c -20.12,0 -25.24,-3.492 -25.32,-7.652 l 0,-0.079 c 0,-2.707 2.13,-7.769 6.39,-14.152 l 42.13,-67.566 18.56,-28.715 54.9,93.43 c 3.87,6.789 5.66,11.933 5.66,15.128 l 0,0.067 c 0,6.348 -6.21,9.387 -23.71,9.539 l -2.63,1.387 0,10.062 1.42,0 0,1.395 93.93,-1.395 0,-1.234 z m -297.65,-61.235 -1.4,0 -9.53,1.211 -0.19,0.895 c -6.35,35.289 -12.27,41.937 -26.55,42.074 l -59.3,1.25 -7.43,0 0,-195.504 c 0.75,-21.019 4.94,-25.832 28.91,-26.582 l 17.32,-1.387 0,-1.32 -1.3,-10.101 -114.35,1.14 -13.77,0 0,0.141 -1.47,0 0,1.32 1.4,10.207 15.98,0 c 23.96,0.75 28.23,5.563 28.87,26.461 l 1.38,194.375 -68.06,0 c -14.29,-0.137 -20.14,-6.785 -26.52,-42.074 l -1.59,-2.106 -1.05,0 -7.24,1.129 -1.23,0 0,0.188 -1.45,0.219 7.97,68.293 1.21,0 9.96,-1.122 0.17,-1.058 c 0.33,-1.453 0.82,-2.063 2.64,-2.699 2.02,-0.746 4.56,-1.051 7.08,-1.051 l 190.51,-1.16 c 0.37,1.226 0.98,1.226 1.35,1.16 0.07,0 0.17,0 0.23,0 5.41,-0.117 9.47,1.621 9.54,3.75 l 1.51,2.18 1.11,0 10.06,-1.204 4.59,-60.355 0.69,-6.918 0,0 0.01,-0.223 -0.13,0 0.07,-1.129 z m -444.28,265.032 c -119.28,0.16 -220.45,76.996 -220.45,191.566 0.17,121.558 93.74,207.638 223.48,207.778 115.22,-0.14 214.39,-78.71 214.46,-189.122 -0.21,-123.422 -99.17,-209.992 -217.49,-210.222 z m 148.2,-203.797 -1.36,-10.215 -1.23,0 c -25.02,-0.895 -30.55,-3.566 -31.32,-29.734 l 0,-169.04 c 0.77,-23.121 4.17,-28.109 31.32,-28.902 l 2.59,-1.387 0,-8.82 -1.36,-2.699 -89.87,1.238 -9.46,0 0,0.11 -0.07,0 0,0 -1.35,0.031 0,1.32 1.28,10.129 1.16,0.078 c 24.37,2.024 26.54,5.07 27.38,31.684 l 0.07,169.871 c -0.73,20.902 -5.39,24.246 -27.45,26.121 l -2.44,1.504 0,1.125 1.4,10.215 100.71,-1.395 0,-1.234 z m -253.1,-257.071 c -22.3,0.141 -50.97,11.032 -55.41,10.852 l 0,1.078 -0.07,-1.156 c -2.54,0 -4.5,-1.391 -5.71,-3.262 l -1.59,-1.14 -0.67,0 -9.22,1.14 -6.62,58.262 -0.67,4.906 0,0.152 0.06,0 -0.13,1.391 9.08,0 2.33,-1.09 0.23,-0.902 c 8.18,-34.379 34.87,-54.129 64.8,-54.25 25.9,0.121 52.36,14.883 52.42,44.23 l -0.06,0.832 c 0.9,53.571 -126.73,71.7 -128.06,144.18 0.1,34.793 32.07,60.473 73.74,60.473 33.7,0 41.81,-10.129 53.99,-9.981 0,0 0.14,-0.066 0.07,-0.066 3.03,0.324 2.63,-0.082 5.24,3.109 l 1.47,0.895 0.65,0 8.8,-1.164 5.01,-47.598 0.8,-5.922 -0.19,0 0.14,-1.133 -1.5,0 -8.89,0.899 -0.35,0.758 c -10.79,27.773 -35.43,45.312 -61.68,45.312 -25.47,-0.152 -42.01,-14.195 -42.09,-34.879 l -1.23,0 c 0,-0.035 -0.05,-0.035 -0.05,-0.082 l 0.73,-1.051 -0.42,0.645 0.97,0 c -0.97,-52.523 126.83,-68.699 128.06,-144.606 0,-40.839 -36.31,-70.832 -83.98,-70.832 z m -101.58,11.93 -1.34,-9.726 -1.24,0 -1.82,0.078 c -0.32,0.082 -0.69,0 -1.38,0 -52.56,-0.141 -63.3,7.5 -94.53,43.14 l -23.28,28.821 c -14.34,18.398 -29.65,38.871 -31.67,38.257 l -0.12,-0.148 c -8.59,-1.391 -19.18,-2.289 -30.22,-2.289 -0.61,0 -1.12,0 -1.8,0 -6.45,0 -10.88,0.449 -14.53,1.687 -0.45,0.043 -0.94,0.043 -1.38,0.071 l -0.27,-65.5 c 0.71,-22.981 7.25,-26.391 29.17,-27.141 l 11.79,-1.387 0,-1.269 -1.35,-10.152 -100.61,1.199 -14.22,0 0,0.152 -0.04,0 0,0.039 -1.44,0 0,1.211 1.36,10.207 8.11,0 c 22.96,0.75 28.33,4.16 29.06,30.332 l 0,167.156 c -0.73,24.258 -4.66,28.426 -27.11,29.176 l -11.42,1.313 0,1.316 1.36,10.219 1.31,0 c 9.35,0 33.6,1.453 49.93,2.359 15.51,0.778 23.61,1.199 47.23,1.199 0.96,0 1.95,0 2.95,-0.078 73.81,0.153 108.76,-30.851 108.95,-73.05 l 0,-0.227 c 0,-26.422 -13.62,-46.355 -35.14,-57.473 -3.97,-2.359 -7.96,-4.769 -12.54,-6.57 1.54,-1.391 3.16,-3.148 5.56,-5.969 7.51,-9.57 52.44,-66.859 58.15,-73.953 l -0.48,-0.328 0.97,-0.5 0.07,0.078 c 17.66,-20.988 25.6,-25.379 49.86,-29.648 l 2.1,-1.551 0,-1.051 z m -333.05,-5.656 -192.26,1.238 -21.83,0 0,0.11 -0.09,0 0,0.031 -1.37,0 0,1.32 1.37,10.207 12.44,0 c 31.54,0.793 34.07,6.531 34.8,30.063 l 0,168.222 c -0.73,22.231 -3.19,28.614 -29.18,29.391 l -9.26,1.133 -0.76,0 0,0.066 -1.4,0.188 0,1.242 1.39,10.215 195.19,-1.313 1.79,-55.074 0.2,-3.156 -0.09,0 0.04,-1.164 -1.31,0 -9.62,1.129 -0.18,1.082 c -5.55,33.75 -13.89,38.558 -26.87,38.898 l -69.89,1.129 -11.64,0 -1.32,-88.856 0,-5.113 70.02,0 c 13.23,0.422 18.06,4.508 20.5,27.485 l 1.56,2.367 1.14,0 10.14,-1.403 0,-76.949 -1.31,-2.621 -1.23,0 -10.13,1.231 -0.17,1.05 c -3.91,28.078 -8.5,28.5 -24.41,29.168 l -57.41,1.172 -7.38,0 0,-83.461 c 0.72,-17.719 4.4,-18.609 18.95,-19.371 l 61.35,0 c 26.96,0.41 33.34,8.942 43.72,43.133 l 0.23,1.019 1.43,-0.48 0,1.379 0.86,0 9.94,-1.5 -7.95,-63.207 z m -231.6,250.762 -1.4,-10.145 -1.29,0 c -19.78,-0.34 -28.84,-8.328 -38.58,-32.586 l -83.82,-214.305 -20.75,0 -2.21,0.891 -86.77,216.5 c -10.53,25.191 -12.82,28.941 -36.6,29.5 l -2.7,1.316 0,1.2 1.39,10.246 113.58,-1.383 0,-1.234 -1.39,-10.145 -1.23,0 c -28.77,-0.746 -37.91,-5.965 -37.74,-14.223 0,0 0,0 0,-0.3 0,-2.481 0.72,-5.551 2.28,-9.504 l 69.2,-172.301 60.72,158.422 c 4.24,10.961 6.52,18.805 6.52,23.531 l 0,0.152 c 0.08,9.645 -7.01,13.883 -34.4,14.153 l -2.61,1.386 0,1.2 1.39,10.246 96.41,-1.383 0,-1.234 z m -308.23,0.035 -1.39,-10.215 -1.22,0 c -24.92,-0.895 -30.48,-3.566 -31.21,-29.734 l 0,-169.04 c 0.73,-23.121 4.08,-28.109 31.21,-28.902 l 2.61,-1.387 0,-8.82 -1.39,-2.699 -89.844,1.238 -9.476,0 0,0.11 -0.024,0 0,0 -1.387,0.031 0,1.32 1.293,10.129 1.141,0.078 c 24.27,2.024 26.566,5.07 27.391,31.684 l 0.07,169.871 c -0.652,20.902 -5.309,24.246 -27.531,26.121 l -2.364,1.504 0,1.125 1.387,10.215 100.734,-1.395 0,-1.234 z m -153.746,0 -1.386,-10.215 -1.223,0 c -30.16,-0.828 -33.18,-3.902 -33.664,-18.133 l -1.316,-212.992 0,-11.008 -0.075,0 0,-1.172 -11.593,0 -1.563,0.422 -202.375,211.836 0,-164.535 c 0.816,-28.332 3.68,-31.121 37.59,-32.094 l 2.609,-1.387 0,-1.32 -1.316,-10.141 -85.387,1.18 -9.601,0 0,0.11 -1.414,0.031 0,1.269 1.386,10.258 2.785,0 c 24.352,0.633 29.579,6.684 30.153,24.102 l 0.578,194.422 c -8.676,5.808 -18.234,8.664 -31.535,9.152 l -2.539,1.469 0,1.16 1.398,10.215 65.352,-0.418 183.652,-191.418 0,152.043 c -0.789,23.539 -4.336,25.222 -36.59,26.949 l -2.539,1.469 0,1.16 1.395,10.215 97.218,-1.395 0,-1.234 z m -433.863,213.527 -187.308,1.168 -34.821,0 0,0.188 -0.023,0 0,0.031 -1.399,0 0,1.203 1.399,14.109 15.082,0 c 49.367,0.914 55.722,9.317 56.633,46.852 l 0,250.463 c -0.829,34.5 -2.704,49.18 -43.903,49.85 l -19.261,1.13 -3.079,0 0,0.19 -1.406,0.07 0,1.21 1.313,14.04 1.211,0 c 16.808,0.64 58.511,3.11 75.976,3.67 33.274,1.2 79.133,1.81 90.637,1.81 53.441,-0.12 100.023,-7.7 122.781,-23.92 25.227,-17.63 37.942,-39.34 37.942,-69.04 l 0,-0.14 c 0,-33.71 -25.973,-64.841 -63.516,-74.665 53.148,-17.914 84.637,-54.551 84.637,-100.992 0,-48.727 -34.348,-117.153 -132.895,-117.227 z m 87.504,-213.527 -1.309,-10.215 -1.3,0 c -25.993,-0.981 -33.082,-9.234 -33.668,-34.09 l 0,-107.664 c 0,-50.559 -32.875,-105.07 -120.477,-105.07 -0.066,0 -0.137,0 -0.203,0 -77.188,-0.071 -117.891,44.75 -117.891,103.082 l 0,116.457 c -0.824,24.922 -4.507,25.969 -31.781,27.285 l -2.523,1.469 0,1.129 1.382,10.246 106.372,-1.395 0,-1.234 -1.383,-10.215 -4.836,0 c -21.641,-0.742 -28.184,-4.238 -28.82,-26.539 l 0,-110.824 c 0.242,-52.7 29.796,-83.262 88.234,-83.563 44.523,0.301 88.062,17.723 88.312,83.902 l 0,92.918 c -0.968,38.368 -3.836,41.555 -36.769,44.106 l -2.277,1.469 0,9.98 1.394,0 0,1.395 94.934,0 2.609,-1.395 0,-1.234 z m 345.543,603.141 0.074,-1.37 0,1.37 c 115.108,-0.14 214.338,-78.71 214.408,-189.122 -0.16,-123.422 -99.12,-209.992 -217.509,-210.222 -119.282,0.16 -220.375,76.996 -220.45,191.566 0.164,121.558 93.829,207.638 223.477,207.778 z m 294.512,-292.719 11.51,0 2.28,-1.059 0.26,-0.898 c 12.4,-52.637 53.52,-82.965 99.36,-83.032 39.66,0.067 80.61,22.743 80.69,68.278 l -0.08,0.894 c 0.91,82.961 -192.38,110.145 -193.61,218.406 0,51.96 47.49,90.13 110.06,90.13 50.92,0 62.43,-15.16 81.85,-15.08 0,0 0.24,0 0.15,0 4.48,0.15 5.06,0.41 8.81,5 l 1.47,0.97 0.58,0 12.15,-1.16 8,-69.98 1.27,-9.5 -0.18,0 0.12,-1.13 -1.38,0 -12.39,0.84 -0.34,0.81 c -16.56,42.51 -54.25,69.49 -94.72,69.49 -38.93,-0.22 -64.94,-21.93 -65.04,-54.51 l 0.1,-0.07 c -0.98,-81.727 192.48,-105.481 193.69,-219.239 0,-60.848 -54.1,-105.785 -125.72,-105.785 -33.71,0.16 -76.79,16.558 -83.88,16.488 l 0,-0.117 c -4.41,0 -7.82,-2.446 -9.87,-5.524 l -1.54,-1.082 -0.66,0 -12.74,1.157 -10.5,86.128 -1.13,8.172 0.13,0 -0.16,1.403 1.46,0 z m 315.09,292.719 1.07,0 13.88,-1.12 0.23,-1.05 c 0.49,-2.63 1.8,-4.01 4.91,-5.14 3.09,-0.98 6.76,-1.65 10.51,-1.65 l 0.72,-0.08 288.92,-1.12 c 0.07,1.38 1.46,1.12 1.53,1.12 8.22,0 15.51,2.29 15.85,6.87 l 1.54,2.17 1.05,0 14.04,-1.18 7.66,-91.95 0.82,-8.49 0,0 0.04,-0.22 -0.11,0 0.07,-1.08 -1.39,0 -13.28,1.11 -0.19,0.99 c -9.38,53.38 -19,64.6 -41.44,64.79 l -85.75,1.16 -16.63,0 0,-296.592 c 0.71,-31.996 8.68,-40.707 45.12,-41.453 l 24.89,-1.382 0,-1.282 -1.38,-14.035 -162.48,1.168 -30.04,0 0,0.188 -0.03,0 0,0.031 -1.39,0 0,1.203 1.39,14.109 23.5,0 c 36.38,0.746 44.37,9.457 45.12,41.368 l 1.36,295.517 -103.76,0 c -22.44,-0.19 -31.98,-11.41 -41.45,-64.79 l -0.17,-0.99 -1.28,0.16 -0.01,-0.19 -0.08,0 0,-1.08 -1.07,0 -10.13,1.08 -2.05,0 0.02,0.22 -1.47,0.17 11.34,101.45 z m 898.64,-386.958 1.39,14.118 3.68,0 c 37,0.488 46.26,10.921 46.82,37.695 l 0.61,295.175 c -13.42,9.04 -28.23,13.63 -48.73,14.19 l -2.51,1.4 0,1.18 1.37,14.12 97.49,-0.38 280.08,-291.935 0,233.495 c -0.81,36.15 -7.99,39.98 -56.59,42.12 l -2.57,1.4 0,1.18 1.4,14.12 145.08,-1.35 0,-1.31 -1.42,-14.04 -1.19,0 c -45.53,-0.64 -51.82,-6.53 -52.31,-28.72 l -1.26,-311.88 0,-26.351 -0.11,0 0,-1.164 -16.89,0 -1.58,0.422 -308.42,322.723 0,-252.344 c 0.86,-42.911 6.96,-48.887 58.29,-49.746 l 2.59,-1.497 0,-1.277 -1.35,-13.965 -123.28,1.133 -19.15,0 0,0.188 -1.44,0 0,1.3 z m 647.11,578.338 -2993.1489,0 0,-1254.1306 2993.1489,0 0,1254.1306"
         style="fill:#ffffff;fill-opacity:1;fill-rule:nonzero;stroke:none"
         id="path22886"
         inkscape:connector-curvature="0" /><path
         d="m 3098.69,51.8008 -3046.8853,0 0,1307.9292 3046.8853,0 0,-1307.9292 z M 0,1411.46 0,0 l 3150.44,0 0,1411.46 -3150.44,0"
         style="fill:#ffffff;fill-opacity:1;fill-rule:nonzero;stroke:none"
         id="path22888"
         inkscape:connector-curvature="0" /></g></g></svg>