<?xml version="1.0" encoding="UTF-8" standalone="no"?>
<!-- Created with Inkscape (http://www.inkscape.org/) -->

<svg
   xmlns:dc="http://purl.org/dc/elements/1.1/"
   xmlns:cc="http://creativecommons.org/ns#"
   xmlns:rdf="http://www.w3.org/1999/02/22-rdf-syntax-ns#"
   xmlns:svg="http://www.w3.org/2000/svg"
   xmlns="http://www.w3.org/2000/svg"
   xmlns:sodipodi="http://sodipodi.sourceforge.net/DTD/sodipodi-0.dtd"
   xmlns:inkscape="http://www.inkscape.org/namespaces/inkscape"
   id="svg22138"
   version="1.1"
   inkscape:version="0.91 r13725"
   xml:space="preserve"
   width="393.76251"
   height="176.41251"
   viewBox="0 0 393.76251 176.41251"
   sodipodi:docname="boston_univ_black.svg"><metadata
     id="metadata22144"><rdf:RDF><cc:Work
         rdf:about=""><dc:format>image/svg+xml</dc:format><dc:type
           rdf:resource="http://purl.org/dc/dcmitype/StillImage" /><dc:title></dc:title></cc:Work></rdf:RDF></metadata><defs
     id="defs22142" /><sodipodi:namedview
     pagecolor="#ffffff"
     bordercolor="#666666"
     borderopacity="1"
     objecttolerance="10"
     gridtolerance="10"
     guidetolerance="10"
     inkscape:pageopacity="0"
     inkscape:pageshadow="2"
     inkscape:window-width="1918"
     inkscape:window-height="1042"
     id="namedview22140"
     showgrid="false"
     inkscape:zoom="0.98790512"
     inkscape:cx="-55.167241"
     inkscape:cy="88.206253"
     inkscape:window-x="1440"
     inkscape:window-y="37"
     inkscape:window-maximized="0"
     inkscape:current-layer="g22146" /><g
     id="g22146"
     inkscape:groupmode="layer"
     inkscape:label="ink_ext_XXXXXX"
     transform="matrix(1.25,0,0,-1.25,0,176.4125)"><g
       id="g22148"
       transform="scale(0.1,0.1)"><path
         d="m 0,0 3150.12,0 0,1411.32 L 0,1411.32 0,0 Z"
         style="fill:#231f20;fill-opacity:1;fill-rule:nonzero;stroke:none"
         id="path22150"
         inkscape:connector-curvature="0" /><path
         d="m 3076.84,73.4414 -3003.5939,0 0,1264.6886 3003.5939,0 0,-1264.6886 z M 51.7813,1359.6 l 0,-1307.8109 3046.6187,0 0,1307.8109 -3046.6187,0"
         style="fill:#ffffff;fill-opacity:1;fill-rule:nonzero;stroke:none"
         id="path22152"
         inkscape:connector-curvature="0" /><path
         d="m 555.199,867.133 c -0.164,-46.684 -22.312,-95.141 -101.332,-95.266 -50.469,0.293 -67.234,15.43 -67.527,60.879 l 0,127.285 63.902,0 c 69.985,-0.039 104.899,-47.07 104.957,-92.898 z m -104.324,106.863 -64.535,0 0,146.584 c 15.176,0.61 38.98,1.74 51.848,1.74 73.765,-0.14 98.156,-37.89 98.3,-79.59 -0.144,-46.421 -27.968,-68.55 -85.613,-68.734 z m 75.133,-3.828 c 39.601,8.203 67.273,40.012 67.293,74.372 0.039,29.33 -12.371,50.39 -37.344,68.01 -22.211,16 -68.766,23.72 -121.996,23.76 -11.496,0 -57.336,-0.63 -90.559,-1.83 -17.519,-0.6 -59.156,-3 -76.023,-3.61 l -1.195,-0.03 0,-13.93 22.355,0 c 41.719,-0.34 44.859,-16.79 45.215,-51.24 l 0,-250.424 c -0.375,-37.766 -8.5,-47.832 -57.879,-48.234 l -15.133,0 0,-13.946 222.094,0 c 97.816,0.11 131.437,67.696 131.582,115.891 0,47.031 -32.816,83.973 -88.41,101.211"
         style="fill:#ffffff;fill-opacity:1;fill-rule:nonzero;stroke:none"
         id="path22154"
         inkscape:connector-curvature="0" /><path
         d="m 900.234,1122.32 c 98.832,-0.03 169.446,-78.3 169.516,-190.004 -0.09,-85.312 -46.73,-171.164 -144.184,-171.328 -96.41,0.02 -172.484,78.965 -172.531,191.239 0.047,72.043 41.953,169.933 147.199,170.093 z m 15.68,17.61 c -129.066,-0.22 -221.871,-85.66 -222.105,-206.414 0.023,-113.661 100.324,-189.911 219.089,-190.118 117.662,0.235 215.842,86.211 216.072,208.829 -0.04,109.433 -98.48,187.503 -213.056,187.703"
         style="fill:#ffffff;fill-opacity:1;fill-rule:nonzero;stroke:none"
         id="path22156"
         inkscape:connector-curvature="0" /><path
         d="m 1233.29,753.066 0.67,0 0.36,0.547 c 2.24,3.352 6.09,6.098 11.03,6.098 7.77,0.078 50.43,-16.289 83.87,-16.313 71.07,0.11 124.33,44.465 124.33,104.426 -0.56,112.403 -194.53,135.645 -193.67,219.646 0.02,33.02 26.94,55.41 66.35,55.48 41.05,0 79.23,-27.4 95.96,-70.42 l 0.31,-0.77 12.52,0 -10.57,79.11 -11.39,0 -0.37,-0.48 c -3.63,-4.71 -5.24,-5.46 -9.84,-5.57 -20.35,-0.1 -31.14,15.09 -82.07,15.11 -62.03,-0.11 -108.63,-37.81 -108.66,-88.75 0.63,-106.989 194.5,-133.766 193.68,-219.039 -0.06,-46.766 -41.98,-69.883 -82.01,-69.942 -46.51,0.02 -88.19,30.918 -100.76,84.121 l -0.23,0.957 -13.88,0 13,-94.211 11.37,0"
         style="fill:#ffffff;fill-opacity:1;fill-rule:nonzero;stroke:none"
         id="path22158"
         inkscape:connector-curvature="0" /><path
         d="m 1528.79,1039.71 0.17,1.02 c 9.2,53.17 19.48,65.86 42.8,65.94 l 103.75,0 0,-296.854 c -0.33,-32.273 -9.84,-42.472 -46.44,-42.804 l -23.56,0 0,-13.946 192.56,0 0,13.946 -23.55,0 c -36.62,0.332 -46.12,10.531 -46.43,42.804 l 0,296.854 103.73,-0.02 c 23.34,-0.06 33.61,-12.75 42.81,-65.92 l 0.18,-1.02 13.3,0 -9.88,100.2 -13.69,0 -0.18,-1.02 c -0.82,-6.05 -9.02,-8.05 -17.44,-8.02 l -290.23,0.02 c -4.1,-0.02 -8.22,0.57 -11.66,1.74 -3.33,1.12 -5.27,3.12 -5.82,6.26 l -0.19,1.02 -13.64,0 -9.91,-100.2 13.32,0"
         style="fill:#ffffff;fill-opacity:1;fill-rule:nonzero;stroke:none"
         id="path22160"
         inkscape:connector-curvature="0" /><path
         d="m 2162.33,760.988 c -96.43,0.02 -172.48,78.965 -172.52,191.239 0.06,72.043 41.97,169.933 147.19,170.093 98.84,-0.03 169.43,-78.3 169.49,-190.004 -0.06,-85.312 -46.7,-171.164 -144.16,-171.328 z m -9.63,378.942 c -129.12,-0.22 -221.89,-85.66 -222.13,-206.414 0.04,-113.661 100.33,-189.911 219.1,-190.118 117.66,0.235 215.84,86.211 216.08,208.829 -0.04,109.433 -98.48,187.503 -213.05,187.703"
         style="fill:#ffffff;fill-opacity:1;fill-rule:nonzero;stroke:none"
         id="path22162"
         inkscape:connector-curvature="0" /><path
         d="m 2567.82,765.762 0,1.25 -1.23,0 c -51.27,0.441 -59.3,8.039 -59.71,51.25 l 0,255.758 310.78,-325.2 17.48,0 0,337.96 c 0.24,22.88 8.3,29.79 53.65,30.11 l 1.23,0 0,13.98 -143.67,0 0,-13.92 1.21,-0.04 c 48.4,-1.61 57.58,-7 57.91,-43.42 l 0,-237.033 -282.44,294.433 -96.48,0 0,-13.94 1.21,-0.04 c 20.68,-0.6 35.92,-5.24 49.47,-14.5 l 0,-296.226 c -0.23,-27.278 -11.01,-38.895 -48.2,-39.172 l -3.67,0 0,-13.934 142.46,0 0,12.684"
         style="fill:#ffffff;fill-opacity:1;fill-rule:nonzero;stroke:none"
         id="path22164"
         inkscape:connector-curvature="0" /><path
         d="m 472.793,539.465 0,-10.02 1.176,-0.09 c 32.926,-1.972 37.472,-7.105 37.894,-45.398 l 0,-92.918 c -0.105,-67.051 -44.859,-85.09 -89.675,-85.238 -58.922,0.121 -89.512,31.558 -89.633,84.859 l 0,110.824 c 0.273,22.696 8.461,27.563 30.226,27.871 l 4.821,0 0,10.11 -104.961,0 0,-10.07 1.242,-0.04 c 27.137,-0.781 32.672,-3.445 33.051,-28.648 l 0,-116.426 c 0.129,-57.64 39.847,-101.609 116.496,-101.742 87.105,0.133 119.168,53.762 119.273,103.731 l 0,107.656 c 0.277,25.207 8.719,34.804 35.051,35.429 l 1.238,0.024 0,10.086 -96.199,0"
         style="fill:#ffffff;fill-opacity:1;fill-rule:nonzero;stroke:none"
         id="path22166"
         inkscape:connector-curvature="0" /><path
         d="m 819.52,530.605 0,-1.199 1.222,-0.039 c 31.996,-1.199 37.512,-4.363 37.867,-28.254 l 0,-155.574 -186.043,193.906 -64.386,0 0,-10.039 1.218,-0.039 c 13.508,-0.39 23.446,-3.418 32.29,-9.375 l 0,-195.531 C 641.438,306.57 634.742,299.27 610.219,299 l -2.84,0 0,-10.09 95,0 0,10.09 -1.246,0 c -33.867,0.441 -38.621,4.941 -39.024,33.441 l 0,167.942 204.75,-214.254 12.168,0 0,223.746 c 0.254,14.883 5.032,19.148 35.051,19.473 l 1.238,0 0,10.117 -95.796,0 0,-8.86"
         style="fill:#ffffff;fill-opacity:1;fill-rule:nonzero;stroke:none"
         id="path22168"
         inkscape:connector-curvature="0" /><path
         d="m 969.668,530.605 0,-1.16 1.176,-0.078 c 22.207,-1.492 28.418,-6.277 28.73,-27.472 L 999.555,332.039 C 999.176,305.398 995.328,300.559 970.844,299 l -1.176,-0.059 0,-10.043 99.372,0 0,10.102 -1.24,0 c -27.28,0.359 -32.27,6.949 -32.61,30.23 l 0,169.083 c 0.34,26.414 7.62,30.695 32.61,31.054 l 1.24,0 0,10.098 -99.372,0 0,-8.86"
         style="fill:#ffffff;fill-opacity:1;fill-rule:nonzero;stroke:none"
         id="path22170"
         inkscape:connector-curvature="0" /><path
         d="m 1282.19,530.605 0,-1.257 1.24,0 c 27.22,-0.129 35.81,-4.649 35.83,-15.516 0.02,-5.219 -2.32,-13.117 -6.69,-24.23 l -61.87,-161.711 -70.59,175.648 c -1.61,3.895 -2.41,7.242 -2.41,10.047 -0.18,9.824 10.29,15.105 39.17,15.781 l 1.22,0.02 0,10.07 -112.16,0 0,-10.09 1.26,0 c 24.08,-0.226 27.69,-5.195 37.92,-30.332 l 86.81,-216.484 21.66,0 82.46,213.308 c 9.64,24.563 19.64,33.411 39.91,33.508 l 1.24,0 0,10.09 -95,0 0,-8.852"
         style="fill:#ffffff;fill-opacity:1;fill-rule:nonzero;stroke:none"
         id="path22172"
         inkscape:connector-curvature="0" /><path
         d="m 1607.29,350.82 -0.25,-0.91 c -10.19,-34.238 -17.62,-43.941 -45.05,-44.121 l -61.4,-0.019 c -14.63,0.339 -19.97,2.699 -20.31,20.699 l 0,83.672 66.16,0 c 16.12,-0.309 22.33,-2.211 25.85,-30.391 l 0.12,-1.102 9.96,0 0,78.239 -9.98,0 -0.1,-1.133 c -2.21,-23.047 -8.09,-28.566 -21.85,-28.75 l -70.16,0 0,95.578 82.89,0 c 13.71,-0.117 22.9,-6.184 28.27,-40.012 l 0.15,-1.054 9.6,0 -3.35,57.949 -193.82,0 0,-10.098 10.04,0 c 26.36,-0.344 30.29,-8.469 30.63,-30.676 l 0,-168.242 c -0.36,-23.73 -4.51,-31.07 -36.23,-31.449 l -12.42,0 0,-10.102 214.12,0 6.64,61.922 -9.51,0"
         style="fill:#ffffff;fill-opacity:1;fill-rule:nonzero;stroke:none"
         id="path22174"
         inkscape:connector-curvature="0" /><path
         d="m 1999.38,497.102 c 0.02,21.55 17.5,36.179 43.38,36.25 26.91,0 52.03,-17.961 63.05,-46.25 l 0.27,-0.801 9.08,0 -7.11,53.156 -8.08,0 -0.38,-0.512 c -2.42,-3.074 -3.22,-3.406 -6.21,-3.515 -13.16,-0.106 -20.48,9.984 -54.21,10 -41.12,-0.055 -72.19,-25.133 -72.21,-59.09 0.6,-71.172 128.81,-88.961 127.99,-144.75 -0.06,-30.559 -27.45,-45.719 -53.77,-45.758 -30.57,0.02 -57.91,20.277 -66.19,55.238 l -0.22,0.942 -9.98,0 8.69,-63.102 8.54,0 0.39,0.559 c 1.4,2.101 3.81,3.851 6.91,3.851 4.9,0.11 33.24,-10.75 55.43,-10.769 47.15,0.078 82.58,29.508 82.58,69.418 -0.59,74.711 -128.83,90.211 -127.95,145.133"
         style="fill:#ffffff;fill-opacity:1;fill-rule:nonzero;stroke:none"
         id="path22176"
         inkscape:connector-curvature="0" /><path
         d="m 2197.09,530.605 0,-1.179 1.18,-0.059 c 22.16,-1.492 28.41,-6.301 28.73,-27.472 l -0.02,-169.856 c -0.35,-26.641 -4.22,-31.48 -28.71,-33.039 l -1.18,-0.059 0,-10.043 99.4,0 0,10.102 -1.25,0 c -27.31,0.359 -32.31,6.949 -32.66,30.23 l 0,169.083 c 0.35,26.414 7.64,30.695 32.66,31.054 l 1.25,0 0,10.098 -99.4,0 0,-8.86"
         style="fill:#ffffff;fill-opacity:1;fill-rule:nonzero;stroke:none"
         id="path22178"
         inkscape:connector-curvature="0" /><path
         d="m 2578.58,545.414 -1.08,0 -0.17,-1.035 c -0.39,-3.617 -5.53,-4.945 -11.09,-4.922 l -191.84,0 c -2.66,0 -5.35,0.359 -7.56,1.109 -2.09,0.727 -3.22,1.914 -3.55,3.813 l -0.18,1.035 -9.75,0 -6.64,-67.082 9.63,0 0.18,1.023 c 6.15,35.176 12.71,43.157 27.87,43.215 l 68.1,0 0,-195.711 c -0.31,-21.218 -6.13,-27.527 -30.23,-27.847 l -16,-0.024 0,-10.078 128.13,0 0,10.078 -16.02,0 c -24.1,0.344 -29.96,6.653 -30.25,27.871 l 0,195.739 68.14,-0.028 c 15.12,-0.058 21.68,-8.039 27.84,-43.215 l 0.17,-1.023 9.65,0 -6.64,67.082 -8.71,0"
         style="fill:#ffffff;fill-opacity:1;fill-rule:nonzero;stroke:none"
         id="path22180"
         inkscape:connector-curvature="0" /><path
         d="m 2797.52,539.445 0,-10.078 1.25,0 c 17.43,-0.066 25.12,-3.164 25.14,-10.801 0.04,-3.789 -1.85,-9.121 -5.88,-16.023 l -55.23,-93.953 -62.7,96.793 c -4.29,6.512 -6.62,11.621 -6.58,15.031 0.02,5.68 6.6,8.953 26.66,8.953 l 1.25,0 0,10.098 -108.53,0 0,-10.059 1.21,-0.039 c 25.7,-0.929 33.92,-5.879 53.61,-36.523 l 70.76,-110.524 0,-55.851 c -0.27,-19.239 -6.21,-27.18 -30.64,-27.469 l -8.81,0 0,-10.102 112.13,0 0,10.102 -6.41,0 c -24.06,0.289 -30.39,7.43 -30.66,28.27 l -0.02,59.8 66.05,111.407 c 11.13,18.574 22.05,28.839 48.85,30.89 l 1.15,0.078 0,10 -92.6,0"
         style="fill:#ffffff;fill-opacity:1;fill-rule:nonzero;stroke:none"
         id="path22182"
         inkscape:connector-curvature="0" /><path
         d="m 1833.5,467.656 c -0.16,-47.011 -28.03,-64.867 -71.78,-65.027 -3.77,-0.02 -6.95,-0.078 -10.02,-0.078 -4.25,0.019 -8.3,0.129 -13.37,0.711 l 0,127.98 c 6.52,0.653 11.44,0.653 18.61,0.653 60.74,-0.204 76.35,-27.743 76.56,-64.239 z m 56.66,-143.226 c 0.02,-0.02 -50.64,64.461 -58.75,74.75 -2.54,3.031 -4.33,5.07 -5.8,6.308 29.43,11.059 47.73,33.586 47.72,64.543 -0.12,41.348 -33.95,71.864 -107.64,71.934 -25.82,0.019 -33.83,-0.402 -50.1,-1.184 -16.29,-0.801 -40.53,-2.398 -49.96,-2.398 l -1.27,0 0,-10.024 10,0 c 22.75,-0.332 28.18,-6.101 28.54,-30.515 l -0.02,-167.164 c -0.34,-26.328 -7.29,-31.34 -30.49,-31.68 l -8.03,0 0,-10.039 114.88,0 0,10.039 -10.41,0 c -22.05,0.32 -30.21,5.109 -30.5,28.48 l 0.19,65.809 c 5.8,-0.359 11.07,-0.738 19.26,-0.719 10.76,0 21.35,0.879 29.82,2.371 l 0.14,0.641 0,-0.594 c 3.71,0.66 18.03,-19.937 32.93,-38.707 l 23.34,-28.801 c 31.58,-35.941 41.15,-42.878 95.1,-42.73 0.47,0 0.97,-0.02 1.52,-0.02 l 1.23,0 0,9.469 -1.03,0.172 c -24.3,4.149 -32.97,8.988 -50.67,30.059"
         style="fill:#ffffff;fill-opacity:1;fill-rule:nonzero;stroke:none"
         id="path22184"
         inkscape:connector-curvature="0" /></g></g></svg>