<?xml version="1.0" encoding="UTF-8" standalone="no"?>
<!-- Created with Inkscape (http://www.inkscape.org/) -->

<svg
   xmlns:dc="http://purl.org/dc/elements/1.1/"
   xmlns:cc="http://creativecommons.org/ns#"
   xmlns:rdf="http://www.w3.org/1999/02/22-rdf-syntax-ns#"
   xmlns:svg="http://www.w3.org/2000/svg"
   xmlns="http://www.w3.org/2000/svg"
   xmlns:sodipodi="http://sodipodi.sourceforge.net/DTD/sodipodi-0.dtd"
   xmlns:inkscape="http://www.inkscape.org/namespaces/inkscape"
   id="svg21494"
   version="1.1"
   inkscape:version="0.91 r13725"
   xml:space="preserve"
   width="393.76251"
   height="176.41251"
   viewBox="0 0 393.76251 176.41251"
   sodipodi:docname="boston_univ_cmyk.svg"><metadata
     id="metadata21500"><rdf:RDF><cc:Work
         rdf:about=""><dc:format>image/svg+xml</dc:format><dc:type
           rdf:resource="http://purl.org/dc/dcmitype/StillImage" /><dc:title></dc:title></cc:Work></rdf:RDF></metadata><defs
     id="defs21498" /><sodipodi:namedview
     pagecolor="#ffffff"
     bordercolor="#666666"
     borderopacity="1"
     objecttolerance="10"
     gridtolerance="10"
     guidetolerance="10"
     inkscape:pageopacity="0"
     inkscape:pageshadow="2"
     inkscape:window-width="1918"
     inkscape:window-height="1042"
     id="namedview21496"
     showgrid="false"
     inkscape:zoom="1.9758102"
     inkscape:cx="182.87346"
     inkscape:cy="30.218267"
     inkscape:window-x="1440"
     inkscape:window-y="37"
     inkscape:window-maximized="0"
     inkscape:current-layer="g21502" /><g
     id="g21502"
     inkscape:groupmode="layer"
     inkscape:label="ink_ext_XXXXXX"
     transform="matrix(1.25,0,0,-1.25,0,176.4125)"><path
       inkscape:connector-curvature="0"
       id="path21506"
       style="fill:#cc0000;fill-opacity:1;fill-rule:nonzero;stroke:none"
       d="m 0,0 315.012,0 0,141.132 L 0,141.132 0,0 Z" /><path
       inkscape:connector-curvature="0"
       id="path21508"
       style="fill:#ffffff;fill-opacity:1;fill-rule:nonzero;stroke:none"
       d="m 307.684,7.34414 -300.35939,0 0,126.46886 300.35939,0 0,-126.46886 z M 5.17813,135.96 l 0,-130.78109 304.66187,0 0,130.78109 -304.66187,0" /><path
       inkscape:connector-curvature="0"
       id="path21510"
       style="fill:#ffffff;fill-opacity:1;fill-rule:nonzero;stroke:none"
       d="m 55.5199,86.7133 c -0.0164,-4.6684 -2.2312,-9.5141 -10.1332,-9.5266 -5.0469,0.0293 -6.7234,1.543 -6.7527,6.0879 l 0,12.7285 6.3902,0 c 6.9985,-0.0039 10.4899,-4.707 10.4957,-9.2898 z m -10.4324,10.6863 -6.4535,0 0,14.6584 c 1.5176,0.061 3.898,0.174 5.1848,0.174 7.3765,-0.014 9.8156,-3.789 9.83,-7.959 -0.0144,-4.6421 -2.7968,-6.855 -8.5613,-6.8734 z m 7.5133,-0.3828 c 3.9601,0.8203 6.7273,4.0012 6.7293,7.4372 0.0039,2.933 -1.2371,5.039 -3.7344,6.801 -2.2211,1.6 -6.8766,2.372 -12.1996,2.376 -1.1496,0 -5.7336,-0.063 -9.0559,-0.183 -1.7519,-0.06 -5.9156,-0.3 -7.6023,-0.361 l -0.1195,-0.003 0,-1.393 2.2355,0 c 4.1719,-0.034 4.4859,-1.679 4.5215,-5.124 l 0,-25.0424 c -0.0375,-3.7766 -0.85,-4.7832 -5.7879,-4.8234 l -1.5133,0 0,-1.3946 22.2094,0 c 9.7816,0.011 13.1437,6.7696 13.1582,11.5891 0,4.7031 -3.2816,8.3973 -8.841,10.1211" /><path
       inkscape:connector-curvature="0"
       id="path21512"
       style="fill:#ffffff;fill-opacity:1;fill-rule:nonzero;stroke:none"
       d="m 90.0234,112.232 c 9.8832,-0.003 16.9446,-7.83 16.9516,-19.0004 -0.009,-8.5312 -4.673,-17.1164 -14.4184,-17.1328 -9.641,0.002 -17.2484,7.8965 -17.2531,19.1239 0.0047,7.2043 4.1953,16.9933 14.7199,17.0093 z m 1.568,1.761 C 78.6848,113.971 69.4043,105.427 69.3809,93.3516 69.3832,81.9855 79.4133,74.3605 91.2898,74.3398 c 11.7662,0.0235 21.5842,8.6211 21.6072,20.8829 -0.004,10.9433 -9.848,18.7503 -21.3056,18.7703" /><path
       inkscape:connector-curvature="0"
       id="path21514"
       style="fill:#ffffff;fill-opacity:1;fill-rule:nonzero;stroke:none"
       d="m 123.329,75.3066 0.067,0 0.036,0.0547 c 0.224,0.3352 0.609,0.6098 1.103,0.6098 0.777,0.0078 5.043,-1.6289 8.387,-1.6313 7.107,0.011 12.433,4.4465 12.433,10.4426 -0.056,11.2403 -19.453,13.5645 -19.367,21.9646 0.002,3.302 2.694,5.541 6.635,5.548 4.105,0 7.923,-2.74 9.596,-7.042 l 0.031,-0.077 1.252,0 -1.057,7.911 -1.139,0 -0.037,-0.048 c -0.363,-0.471 -0.524,-0.546 -0.984,-0.557 -2.035,-0.01 -3.114,1.509 -8.207,1.511 -6.203,-0.011 -10.863,-3.781 -10.866,-8.875 0.063,-10.6989 19.45,-13.3766 19.368,-21.9039 -0.006,-4.6766 -4.198,-6.9883 -8.201,-6.9942 -4.651,0.002 -8.819,3.0918 -10.076,8.4121 l -0.023,0.0957 -1.388,0 1.3,-9.4211 1.137,0" /><path
       inkscape:connector-curvature="0"
       id="path21516"
       style="fill:#ffffff;fill-opacity:1;fill-rule:nonzero;stroke:none"
       d="m 152.879,103.971 0.017,0.102 c 0.92,5.317 1.948,6.586 4.28,6.594 l 10.375,0 0,-29.6854 c -0.033,-3.2273 -0.984,-4.2472 -4.644,-4.2804 l -2.356,0 0,-1.3946 19.256,0 0,1.3946 -2.355,0 c -3.662,0.0332 -4.612,1.0531 -4.643,4.2804 l 0,29.6854 10.373,-0.002 c 2.334,-0.006 3.361,-1.275 4.281,-6.592 l 0.018,-0.102 1.33,0 -0.988,10.02 -1.369,0 -0.018,-0.102 c -0.082,-0.605 -0.902,-0.805 -1.744,-0.802 l -29.023,0.002 c -0.41,-0.002 -0.822,0.057 -1.166,0.174 -0.333,0.112 -0.527,0.312 -0.582,0.626 l -0.019,0.102 -1.364,0 -0.991,-10.02 1.332,0" /><path
       inkscape:connector-curvature="0"
       id="path21518"
       style="fill:#ffffff;fill-opacity:1;fill-rule:nonzero;stroke:none"
       d="m 216.233,76.0988 c -9.643,0.002 -17.248,7.8965 -17.252,19.1239 0.006,7.2043 4.197,16.9933 14.719,17.0093 9.884,-0.003 16.943,-7.83 16.949,-19.0004 -0.006,-8.5312 -4.67,-17.1164 -14.416,-17.1328 z m -0.963,37.8942 c -12.912,-0.022 -22.189,-8.566 -22.213,-20.6414 0.004,-11.3661 10.033,-18.9911 21.91,-19.0118 11.766,0.0235 21.584,8.6211 21.608,20.8829 -0.004,10.9433 -9.848,18.7503 -21.305,18.7703" /><path
       inkscape:connector-curvature="0"
       id="path21520"
       style="fill:#ffffff;fill-opacity:1;fill-rule:nonzero;stroke:none"
       d="m 256.782,76.5762 0,0.125 -0.123,0 c -5.127,0.0441 -5.93,0.8039 -5.971,5.125 l 0,25.5758 31.078,-32.52 1.748,0 0,33.796 c 0.024,2.288 0.83,2.979 5.365,3.011 l 0.123,0 0,1.398 -14.367,0 0,-1.392 0.121,-0.004 c 4.84,-0.161 5.758,-0.7 5.791,-4.342 l 0,-23.7033 -28.244,29.4433 -9.648,0 0,-1.394 0.121,-0.004 c 2.068,-0.06 3.592,-0.524 4.947,-1.45 l 0,-29.6226 c -0.023,-2.7278 -1.101,-3.8895 -4.82,-3.9172 l -0.367,0 0,-1.3934 14.246,0 0,1.2684" /><path
       inkscape:connector-curvature="0"
       id="path21522"
       style="fill:#ffffff;fill-opacity:1;fill-rule:nonzero;stroke:none"
       d="m 47.2793,53.9465 0,-1.002 0.1176,-0.009 c 3.2926,-0.1972 3.7472,-0.7105 3.7894,-4.5398 l 0,-9.2918 c -0.0105,-6.7051 -4.4859,-8.509 -8.9675,-8.5238 -5.8922,0.0121 -8.9512,3.1558 -8.9633,8.4859 l 0,11.0824 c 0.0273,2.2696 0.8461,2.7563 3.0226,2.7871 l 0.4821,0 0,1.011 -10.4961,0 0,-1.007 0.1242,-0.004 c 2.7137,-0.0781 3.2672,-0.3445 3.3051,-2.8648 l 0,-11.6426 c 0.0129,-5.764 3.9847,-10.1609 11.6496,-10.1742 8.7105,0.0133 11.9168,5.3762 11.9273,10.3731 l 0,10.7656 c 0.0277,2.5207 0.8719,3.4804 3.5051,3.5429 l 0.1238,0.0024 0,1.0086 -9.6199,0" /><path
       inkscape:connector-curvature="0"
       id="path21524"
       style="fill:#ffffff;fill-opacity:1;fill-rule:nonzero;stroke:none"
       d="m 81.952,53.0605 0,-0.1199 0.1222,-0.0039 c 3.1996,-0.1199 3.7512,-0.4363 3.7867,-2.8254 l 0,-15.5574 -18.6043,19.3906 -6.4386,0 0,-1.0039 0.1218,-0.0039 c 1.3508,-0.039 2.3446,-0.3418 3.229,-0.9375 l 0,-19.5531 C 64.1438,30.657 63.4742,29.927 61.0219,29.9 l -0.284,0 0,-1.009 9.5,0 0,1.009 -0.1246,0 c -3.3867,0.0441 -3.8621,0.4941 -3.9024,3.3441 l 0,16.7942 20.475,-21.4254 1.2168,0 0,22.3746 c 0.0254,1.4883 0.5032,1.9148 3.5051,1.9473 l 0.1238,0 0,1.0117 -9.5796,0 0,-0.886" /><path
       inkscape:connector-curvature="0"
       id="path21526"
       style="fill:#ffffff;fill-opacity:1;fill-rule:nonzero;stroke:none"
       d="m 96.9668,53.0605 0,-0.116 0.1176,-0.0078 c 2.2207,-0.1492 2.8418,-0.6277 2.873,-2.7472 L 99.9555,33.2039 C 99.9176,30.5398 99.5328,30.0559 97.0844,29.9 l -0.1176,-0.0059 0,-1.0043 9.9372,0 0,1.0102 -0.124,0 c -2.728,0.0359 -3.227,0.6949 -3.261,3.023 l 0,16.9083 c 0.034,2.6414 0.762,3.0695 3.261,3.1054 l 0.124,0 0,1.0098 -9.9372,0 0,-0.886" /><path
       inkscape:connector-curvature="0"
       id="path21528"
       style="fill:#ffffff;fill-opacity:1;fill-rule:nonzero;stroke:none"
       d="m 128.219,53.0605 0,-0.1257 0.124,0 c 2.722,-0.0129 3.581,-0.4649 3.583,-1.5516 0.002,-0.5219 -0.232,-1.3117 -0.669,-2.423 l -6.187,-16.1711 -7.059,17.5648 c -0.161,0.3895 -0.241,0.7242 -0.241,1.0047 -0.018,0.9824 1.029,1.5105 3.917,1.5781 l 0.122,0.002 0,1.007 -11.216,0 0,-1.009 0.126,0 c 2.408,-0.0226 2.769,-0.5195 3.792,-3.0332 l 8.681,-21.6484 2.166,0 8.246,21.3308 c 0.964,2.4563 1.964,3.3411 3.991,3.3508 l 0.124,0 0,1.009 -9.5,0 0,-0.8852" /><path
       inkscape:connector-curvature="0"
       id="path21530"
       style="fill:#ffffff;fill-opacity:1;fill-rule:nonzero;stroke:none"
       d="m 160.729,35.082 -0.025,-0.091 c -1.019,-3.4238 -1.762,-4.3941 -4.505,-4.4121 l -6.14,-0.0019 c -1.463,0.0339 -1.997,0.2699 -2.031,2.0699 l 0,8.3672 6.616,0 c 1.612,-0.0309 2.233,-0.2211 2.585,-3.0391 l 0.012,-0.1102 0.996,0 0,7.8239 -0.998,0 -0.01,-0.1133 c -0.221,-2.3047 -0.809,-2.8566 -2.185,-2.875 l -7.016,0 0,9.5578 8.289,0 c 1.371,-0.0117 2.29,-0.6184 2.827,-4.0012 l 0.015,-0.1054 0.96,0 -0.335,5.7949 -19.382,0 0,-1.0098 1.004,0 c 2.636,-0.0344 3.029,-0.8469 3.063,-3.0676 l 0,-16.8242 c -0.036,-2.373 -0.451,-3.107 -3.623,-3.1449 l -1.242,0 0,-1.0102 21.412,0 0.664,6.1922 -0.951,0" /><path
       inkscape:connector-curvature="0"
       id="path21532"
       style="fill:#ffffff;fill-opacity:1;fill-rule:nonzero;stroke:none"
       d="m 199.938,49.7102 c 0.002,2.155 1.75,3.6179 4.338,3.625 2.691,0 5.203,-1.7961 6.305,-4.625 l 0.027,-0.0801 0.908,0 -0.711,5.3156 -0.808,0 -0.038,-0.0512 c -0.242,-0.3074 -0.322,-0.3406 -0.621,-0.3515 -1.316,-0.0106 -2.048,0.9984 -5.421,1 -4.112,-0.0055 -7.219,-2.5133 -7.221,-5.909 0.06,-7.1172 12.881,-8.8961 12.799,-14.475 -0.006,-3.0559 -2.745,-4.5719 -5.377,-4.5758 -3.057,0.002 -5.791,2.0277 -6.619,5.5238 l -0.022,0.0942 -0.998,0 0.869,-6.3102 0.854,0 0.039,0.0559 c 0.14,0.2101 0.381,0.3851 0.691,0.3851 0.49,0.011 3.324,-1.075 5.543,-1.0769 4.715,0.0078 8.258,2.9508 8.258,6.9418 -0.059,7.4711 -12.883,9.0211 -12.795,14.5133" /><path
       inkscape:connector-curvature="0"
       id="path21534"
       style="fill:#ffffff;fill-opacity:1;fill-rule:nonzero;stroke:none"
       d="m 219.709,53.0605 0,-0.1179 0.118,-0.0059 c 2.216,-0.1492 2.841,-0.6301 2.873,-2.7472 l -0.002,-16.9856 c -0.035,-2.6641 -0.422,-3.148 -2.871,-3.3039 l -0.118,-0.0059 0,-1.0043 9.94,0 0,1.0102 -0.125,0 c -2.731,0.0359 -3.231,0.6949 -3.266,3.023 l 0,16.9083 c 0.035,2.6414 0.764,3.0695 3.266,3.1054 l 0.125,0 0,1.0098 -9.94,0 0,-0.886" /><path
       inkscape:connector-curvature="0"
       id="path21536"
       style="fill:#ffffff;fill-opacity:1;fill-rule:nonzero;stroke:none"
       d="m 257.858,54.5414 -0.108,0 -0.017,-0.1035 c -0.039,-0.3617 -0.553,-0.4945 -1.109,-0.4922 l -19.184,0 c -0.266,0 -0.535,0.0359 -0.756,0.1109 -0.209,0.0727 -0.322,0.1914 -0.355,0.3813 l -0.018,0.1035 -0.975,0 -0.664,-6.7082 0.963,0 0.018,0.1023 c 0.615,3.5176 1.271,4.3157 2.787,4.3215 l 6.81,0 0,-19.5711 c -0.031,-2.1218 -0.613,-2.7527 -3.023,-2.7847 l -1.6,-0.0024 0,-1.0078 12.813,0 0,1.0078 -1.602,0 c -2.41,0.0344 -2.996,0.6653 -3.025,2.7871 l 0,19.5739 6.814,-0.0028 c 1.512,-0.0058 2.168,-0.8039 2.784,-4.3215 l 0.017,-0.1023 0.965,0 -0.664,6.7082 -0.871,0" /><path
       inkscape:connector-curvature="0"
       id="path21538"
       style="fill:#ffffff;fill-opacity:1;fill-rule:nonzero;stroke:none"
       d="m 279.752,53.9445 0,-1.0078 0.125,0 c 1.743,-0.0066 2.512,-0.3164 2.514,-1.0801 0.004,-0.3789 -0.185,-0.9121 -0.588,-1.6023 l -5.523,-9.3953 -6.27,9.6793 c -0.429,0.6512 -0.662,1.1621 -0.658,1.5031 0.002,0.568 0.66,0.8953 2.666,0.8953 l 0.125,0 0,1.0098 -10.853,0 0,-1.0059 0.121,-0.0039 c 2.57,-0.0929 3.392,-0.5879 5.361,-3.6523 l 7.076,-11.0524 0,-5.5851 c -0.027,-1.9239 -0.621,-2.718 -3.064,-2.7469 l -0.881,0 0,-1.0102 11.213,0 0,1.0102 -0.641,0 c -2.406,0.0289 -3.039,0.743 -3.066,2.827 l -0.002,5.98 6.605,11.1407 c 1.113,1.8574 2.205,2.8839 4.885,3.089 l 0.115,0.0078 0,1 -9.26,0" /><path
       inkscape:connector-curvature="0"
       id="path21540"
       style="fill:#ffffff;fill-opacity:1;fill-rule:nonzero;stroke:none"
       d="m 183.35,46.7656 c -0.016,-4.7011 -2.803,-6.4867 -7.178,-6.5027 -0.377,-0.002 -0.695,-0.0078 -1.002,-0.0078 -0.425,0.0019 -0.83,0.0129 -1.337,0.0711 l 0,12.798 c 0.652,0.0653 1.144,0.0653 1.861,0.0653 6.074,-0.0204 7.635,-2.7743 7.656,-6.4239 z m 5.666,-14.3226 c 0.002,-0.002 -5.064,6.4461 -5.875,7.475 -0.254,0.3031 -0.433,0.507 -0.58,0.6308 2.943,1.1059 4.773,3.3586 4.772,6.4543 -0.012,4.1348 -3.395,7.1864 -10.764,7.1934 -2.582,0.0019 -3.383,-0.0402 -5.01,-0.1184 -1.629,-0.0801 -4.053,-0.2398 -4.996,-0.2398 l -0.127,0 0,-1.0024 1,0 c 2.275,-0.0332 2.818,-0.6101 2.854,-3.0515 L 170.288,33.068 c -0.034,-2.6328 -0.729,-3.134 -3.049,-3.168 l -0.803,0 0,-1.0039 11.488,0 0,1.0039 -1.041,0 c -2.205,0.032 -3.021,0.5109 -3.05,2.848 l 0.019,6.5809 c 0.58,-0.0359 1.107,-0.0738 1.926,-0.0719 1.076,0 2.135,0.0879 2.982,0.2371 l 0.014,0.0641 0,-0.0594 c 0.371,0.066 1.803,-1.9937 3.293,-3.8707 l 2.334,-2.8801 c 3.158,-3.5941 4.115,-4.2878 9.51,-4.273 0.047,0 0.097,-0.002 0.152,-0.002 l 0.123,0 0,0.9469 -0.103,0.0172 c -2.43,0.4149 -3.297,0.8988 -5.067,3.0059" /></g></svg>